<svg width="137" height="32" viewBox="0 0 137 32" fill="none" xmlns="http://www.w3.org/2000/svg">
<path d="M94.9502 0C86.1147 0 78.9502 7.16125 78.9502 16C78.9502 24.8388 86.1114 32 94.9502 32C103.789 32 110.95 24.8355 110.95 16C110.95 7.16452 103.789 0 94.9502 0ZM94.9502 4.80033C101.124 4.80033 106.15 9.82628 106.15 16C106.15 22.1737 101.124 27.1997 94.9502 27.1997C88.7765 27.1997 83.7505 22.177 83.7505 16C83.7505 9.82301 88.7765 4.80033 94.9502 4.80033Z" fill="#FF9132"/>
<path d="M76.0072 27.1997H62.3223V2.40016C62.3223 1.07255 61.2465 0 59.9221 0C58.5978 0 57.522 1.07582 57.522 2.40016V29.6849C57.522 30.9601 58.5586 31.9967 59.8338 31.9967H76.0072C77.2824 31.9967 78.319 30.9601 78.319 29.6849V29.5083C78.319 28.233 77.2824 27.1964 76.0072 27.1964" fill="#FFD23C"/>
<path d="M50.8482 31.6272C50.8482 31.6272 50.8711 31.6108 50.8842 31.6043C51.7573 31.0418 52.1627 29.9758 51.8946 28.9785V28.9719C51.8946 28.9719 51.8913 28.9654 51.8881 28.9621C51.8717 28.8935 51.8488 28.8281 51.8259 28.7627C51.8161 28.7365 51.8063 28.7103 51.7932 28.6842C51.7802 28.6548 51.7703 28.6221 51.754 28.5894L39.1613 1.63166C39.073 1.37006 38.939 1.12481 38.7624 0.908993C38.7493 0.892644 38.7362 0.879564 38.7231 0.863214C38.7068 0.846864 38.6937 0.827244 38.6774 0.810894C38.6708 0.804354 38.6643 0.794544 38.6577 0.788004C38.6447 0.771654 38.6316 0.758575 38.6152 0.742225C38.5956 0.722605 38.5727 0.699715 38.5498 0.680095C38.5269 0.657205 38.5008 0.631045 38.4746 0.608156C38.4681 0.601616 38.4615 0.595076 38.455 0.591806C38.4321 0.568916 38.406 0.549296 38.3798 0.529676C38.3438 0.500246 38.3079 0.474087 38.2686 0.444657C38.2425 0.425037 38.213 0.408687 38.1869 0.389067C38.1509 0.366177 38.1149 0.343287 38.0757 0.320398C38.0397 0.300778 38.0037 0.281158 37.9678 0.264808C37.9449 0.251728 37.922 0.238648 37.8958 0.225568H37.886C37.886 0.225568 37.8697 0.215758 37.8631 0.212488C37.8272 0.196138 37.7912 0.183059 37.7585 0.169979C37.716 0.153629 37.6767 0.137279 37.6342 0.124199C37.6179 0.117659 37.5983 0.114389 37.5819 0.107849C37.0489 -0.0589198 36.4897 -0.02622 35.996 0.169979C35.9927 0.169979 35.9894 0.173249 35.9862 0.176519C35.9175 0.202678 35.8521 0.235378 35.7834 0.268078C35.7736 0.274618 35.7671 0.277888 35.7573 0.281158C35.6984 0.313858 35.6396 0.349827 35.584 0.385797C35.5742 0.392337 35.5643 0.398877 35.5545 0.405417C35.4989 0.441387 35.4466 0.480626 35.3976 0.519866C35.3878 0.529676 35.378 0.536216 35.3681 0.546026C35.3354 0.572186 35.3027 0.598346 35.2733 0.627775C35.2537 0.644125 35.2373 0.663745 35.221 0.680095C35.2145 0.686635 35.2079 0.693175 35.2014 0.699715C35.1752 0.725875 35.1458 0.752035 35.1229 0.778194C34.9234 0.997283 34.7665 1.2458 34.6618 1.51721L22.164 28.3605C21.6212 29.263 21.7389 30.3976 22.4125 31.1726C22.4256 31.189 22.4387 31.2053 22.455 31.2217C22.4844 31.2511 22.5139 31.2805 22.5433 31.3132C22.5727 31.3394 22.5989 31.3688 22.6316 31.395C22.6545 31.4146 22.6806 31.4342 22.7035 31.4539C22.7428 31.4866 22.782 31.516 22.8245 31.5487C22.831 31.552 22.8376 31.5585 22.8441 31.5618C22.8605 31.5748 22.8801 31.5846 22.8997 31.5977C22.9422 31.6239 22.9815 31.6501 23.0272 31.6762C23.0599 31.6958 23.0926 31.7122 23.1286 31.7285C23.1548 31.7416 23.1809 31.758 23.2071 31.771H23.2169C23.2169 31.771 23.2365 31.7808 23.2431 31.7874C23.2725 31.8005 23.3052 31.8135 23.3379 31.8266C23.3837 31.8462 23.4327 31.8659 23.4785 31.8789C23.4916 31.8822 23.5047 31.8855 23.5177 31.892C24.5085 32.1994 25.5876 31.8266 26.1762 30.9764C26.1762 30.9764 26.1795 30.9764 26.1795 30.9732C26.1795 30.9699 26.186 30.9666 26.186 30.9634C26.2253 30.9078 26.2613 30.8489 26.2972 30.7868C26.3103 30.7639 26.3234 30.7377 26.3365 30.7116C26.3528 30.6821 26.3724 30.6527 26.3855 30.62L36.8887 8.06697L47.3036 30.3748C47.6469 31.3688 48.5952 32.0097 49.6154 31.9901H49.6841C49.7266 31.9901 49.7691 31.9836 49.8116 31.977C49.8509 31.9738 49.8901 31.9705 49.9293 31.964C49.9588 31.9574 49.9915 31.9509 50.0209 31.9476C50.07 31.9378 50.119 31.928 50.1681 31.9149C50.1779 31.9149 50.1844 31.9149 50.1909 31.9116C50.2106 31.9051 50.2335 31.8953 50.2531 31.892C50.3021 31.8789 50.3479 31.8626 50.397 31.8462C50.4329 31.8332 50.4689 31.8201 50.5016 31.8037C50.5278 31.7939 50.5572 31.7841 50.5866 31.771L50.5964 31.7645C50.5964 31.7645 50.6128 31.7547 50.6226 31.7514C50.652 31.7351 50.6814 31.722 50.7109 31.7024C50.7567 31.6795 50.7992 31.6533 50.8449 31.6272" fill="#46C864"/>
<path d="M11.2029 0H2.40343C1.07909 0 0.00326998 1.07582 0.00326998 2.40016C0.00326998 3.60024 0.882894 4.59432 2.03393 4.7709C2.15492 4.79052 2.27917 4.79706 2.4067 4.79706H11.2062C14.7411 4.79706 17.6056 7.66483 17.6056 11.1964C17.6056 14.728 14.7411 17.5957 11.2062 17.5957H2.40343C2.2759 17.5957 2.15165 17.6056 2.03066 17.6252C0.882894 17.805 0 18.7958 0 19.9959V29.5966C0 30.9209 1.07582 31.9967 2.40016 31.9967C3.7245 31.9967 4.80033 30.9209 4.80033 29.5966V22.3961H11.1997C17.3865 22.3961 22.3993 17.3832 22.3993 11.1964C22.3993 5.00961 17.3897 0 11.2029 0Z" fill="white"/>
<path d="M118.35 0H118.121C117.523 0 117.036 0.575516 117.036 1.28837V14.7116C117.036 15.4245 117.523 16 118.121 16H118.35C118.949 16 119.436 15.4245 119.436 14.7116V1.28837C119.436 0.575516 118.949 0 118.35 0Z" fill="white"/>
<path d="M135.027 0H124.805C124.092 0 123.517 0.487227 123.517 1.08563V1.31453C123.517 1.91294 124.092 2.40016 124.805 2.40016H128.556V14.7116C128.556 15.4245 129.043 16 129.642 16H129.87C130.469 16 130.956 15.4245 130.956 14.7116V2.40016H135.027C135.74 2.40016 136.316 1.91294 136.316 1.31453V1.08563C136.316 0.487227 135.74 0 135.027 0Z" fill="white"/>
</svg>
